<svg width="1440" height="330" viewBox="0 0 1440 330" fill="none" xmlns="http://www.w3.org/2000/svg">
<g clip-path="url(#clip0_386_5936)">
<g opacity="0.3" clip-path="url(#clip1_386_5936)">
<path d="M382.108 353.142C340.527 286.688 263.203 247.801 183.552 263.526C150.657 270.016 121.655 284.273 96.9716 307.103C92.3672 311.366 90.2786 316.197 91.6552 322.544C100.532 362.947 109.266 403.35 118.095 443.8C126.876 484.061 135.705 524.275 144.392 564.536C150.847 594.471 157.208 624.406 163.473 654.388C165.182 662.583 169.407 668.172 177.998 670.067C193.615 673.524 209.232 677.361 225.466 676.65C234.2 676.082 243.029 676.177 251.62 674.803C283.993 669.688 314.04 658.225 339.483 637.384C392.931 593.666 418.041 536.448 417.234 467.862C416.76 426.322 403.991 388.193 382.108 353.19V353.142ZM314.8 457.489L254.706 526.075C247.728 534.032 234.675 530.622 232.491 520.296L210.419 415.476C208.283 405.245 218.583 396.908 228.172 401.124L310.338 437.359C318.265 440.864 320.496 451 314.8 457.489Z" fill="white"/>
<path d="M813.588 200.529C812.354 188.356 810.407 177.746 808.556 166.426C808.224 164.484 806.183 162.068 804.332 161.357C802.86 160.789 799.727 161.879 798.683 163.252C794.268 169.22 788.762 172.773 781.405 170.404C773.24 167.799 768.731 161.405 767.354 153.116C763.889 132.654 766.642 112.808 773.288 93.3403C781.879 68.2365 781.737 43.2747 770.535 18.9761C753.969 -16.8324 719.033 -36.3471 679.587 -32.321C635.585 -27.8686 595.95 6.37682 585.269 49.006C582.943 58.337 583.038 58.5739 592.152 61.6526C608.908 67.2891 625.712 72.7362 642.373 78.5622C647.024 80.1726 649.303 78.9411 651.819 74.915C655.759 68.5207 659.698 61.6053 665.299 56.8687C676.359 47.5376 688.748 50.8532 695.394 63.642C700.805 74.0624 700.758 85.0513 699.049 96.277C698.479 99.9241 696.533 101.156 693.163 100.019C649.493 85.146 606.44 111.387 586.503 144.164C568.656 173.53 563.482 204.555 578.149 236.716C590.253 263.241 611.044 278.825 640.616 281.809C641.898 281.951 643.227 282.14 644.509 282.377C644.509 282.377 655.711 282.898 665.632 281.43C693.495 274.467 714.618 258.362 730.662 234.822C732.656 236.243 734.317 237.095 735.599 238.374C751.785 254.384 784.016 254.526 803.999 233.069C812.828 223.596 814.917 216.16 813.73 200.529H813.588ZM664.113 199.534C657.752 207.871 649.493 212.228 645.6 209.244C641.708 206.26 643.702 197.166 650.062 188.83C656.423 180.493 664.682 176.136 668.575 179.12C672.467 182.056 670.473 191.198 664.113 199.534Z" fill="white"/>
<path d="M838.84 559.656C819.806 545.257 800.914 530.716 781.879 516.364C776.895 512.622 775.282 513.143 772.339 518.543C764.839 532.279 753.921 542.415 739.681 548.668C718.51 557.904 697.815 558.851 678.828 543.268C672.467 538.058 672.894 535.168 680.489 532.658C703.511 524.937 722.782 511.533 738.684 493.534C768.731 459.573 780.883 420.212 769.918 375.735C756.912 323.017 705.742 286.025 641.518 295.592C604.873 301.039 574.874 319.37 552.09 348.832C546.963 355.51 542.121 362.378 536.9 369.53C528.024 352.005 525.508 333.864 528.403 315.344C531.299 296.871 535.903 278.635 539.511 260.258C546.346 225.491 554.51 191.009 555.934 155.342C557.453 116.881 549.574 80.7888 532.438 46.5907C525.176 32.0968 516.299 18.5029 502.676 8.74551C468.072 -16.0268 411.728 -10.2008 380.875 21.2974C379.166 23.05 377.22 24.5183 374.799 26.6498C367.536 6.23512 353.913 -5.7484 333.55 -8.77981C312.806 -11.8112 297.047 -1.24867 283.329 11.5874C277.68 -2.95383 273.551 -17.7793 266.526 -31.0417C244.596 -72.3446 207.239 -89.7279 161.338 -80.5863C131.86 -74.7129 107.984 -58.4191 86.7189 -37.9571C53.8239 -6.36416 34.5047 32.9968 21.4037 75.9101C18.9828 83.8676 21.4037 87.4674 29.9953 89.2199C53.1119 93.9091 76.276 98.551 99.3927 103.24C106.987 104.756 107.367 104.33 110.595 97.0826C112.778 92.2039 115.199 87.2305 118.475 83.1097C128.775 70.0368 145.531 68.7105 158.585 78.8468C165.8 84.436 168.648 91.9671 170.119 100.351C173.299 118.634 170.119 136.728 167.081 154.632C162.809 179.688 158.11 204.698 148.616 228.475C146.718 233.306 148.189 235.438 153.458 235.912C160.293 236.527 167.224 236.717 174.106 236.906C197.413 237.664 220.672 238.327 243.978 239.038C252.19 239.275 254.421 237.522 255.323 230.512C257.174 216.065 259.121 201.619 262.111 187.362C265.196 172.489 267.048 156.669 272.127 142.08C276.019 130.902 284.611 122.66 294.674 116.597C310.338 107.172 331.746 115.082 338.961 133.317C341.761 140.375 342.141 148.427 343.803 155.958C343.803 156.006 343.803 156.1 343.85 156.148C344.609 159.274 348.976 160.126 350.78 157.474C352.916 154.158 354.578 150.606 356.524 147.196C363.454 134.975 373.66 126.828 386.998 122.518C402.425 117.497 420.937 123.134 430.525 136.159C439.782 148.759 440.778 163.016 438.025 177.699C429.624 222.365 420.557 266.936 412.63 311.649C408.833 333.011 410.399 354.752 413.912 376.067C418.896 406.334 433.658 432.1 451.411 456.636C468.262 479.94 490.145 496.755 515.777 508.786C522.328 511.864 524.416 515.038 524.274 521.953C523.799 546.962 530.634 570.219 544.115 591.155C571.409 633.5 611.234 656.33 660.885 661.587C716.991 667.508 766.073 650.599 807.749 612.801C821.04 600.723 832.005 586.56 840.217 570.456C842.258 566.43 842.97 562.877 838.745 559.656H838.84ZM669.951 406.191L663.163 428.738C662.167 432.053 658.274 433.427 655.426 431.532L642.278 422.769C639.05 420.591 638.955 415.901 642.088 413.58L661.027 399.844C665.489 396.576 671.565 400.886 669.951 406.144V406.191Z" fill="white"/>
</g>
<g opacity="0.3">
<path d="M1079.58 98.0002C1045.5 43.4853 982.126 11.5846 916.841 24.4848C889.879 29.808 866.108 41.5037 845.877 60.2322C842.103 63.7293 840.391 67.6926 841.519 72.8993C848.795 106.043 855.953 139.188 863.19 172.37C870.388 205.398 877.624 238.387 884.744 271.414C890.035 295.971 895.248 320.528 900.384 345.124C901.785 351.846 905.247 356.431 912.289 357.985C925.089 360.822 937.889 363.969 951.195 363.386C958.354 362.92 965.59 362.998 972.632 361.871C999.166 357.674 1023.79 348.271 1044.65 331.175C1088.46 295.311 1109.04 248.373 1108.38 192.109C1107.99 158.033 1097.52 126.754 1079.58 98.0391V98.0002ZM1024.42 183.6L975.161 239.863C969.442 246.391 958.743 243.593 956.953 235.123L938.862 149.135C937.111 140.742 945.554 133.903 953.413 137.361L1020.76 167.086C1027.26 169.961 1029.09 178.277 1024.42 183.6Z" fill="white"/>
<path d="M1433.24 -27.1945C1432.23 -37.1805 1430.63 -45.8842 1429.12 -55.1708C1428.84 -56.7639 1427.17 -58.7455 1425.65 -59.3284C1424.45 -59.7947 1421.88 -58.901 1421.02 -57.7742C1417.41 -52.8783 1412.89 -49.9641 1406.86 -51.9069C1400.17 -54.044 1396.47 -59.2895 1395.35 -66.0893C1392.51 -82.8751 1394.76 -99.1557 1400.21 -115.126C1407.25 -135.719 1407.13 -156.196 1397.95 -176.129C1384.37 -205.504 1355.74 -221.513 1323.41 -218.21C1287.34 -214.558 1254.86 -186.465 1246.1 -151.495C1244.2 -143.84 1244.27 -143.646 1251.74 -141.12C1265.48 -136.496 1279.25 -132.028 1292.91 -127.249C1296.72 -125.927 1298.59 -126.938 1300.65 -130.24C1303.88 -135.486 1307.11 -141.159 1311.7 -145.045C1320.76 -152.699 1330.92 -149.979 1336.36 -139.488C1340.8 -130.94 1340.76 -121.925 1339.36 -112.716C1338.89 -109.725 1337.3 -108.714 1334.54 -109.647C1298.74 -121.848 1263.45 -100.321 1247.11 -73.4331C1232.49 -49.3424 1228.24 -23.8918 1240.27 2.49139C1250.19 24.2507 1267.23 37.0343 1291.47 39.4823C1292.52 39.5988 1293.61 39.7542 1294.66 39.9485C1294.66 39.9485 1303.84 40.3759 1311.97 39.1714C1334.81 33.4596 1352.12 20.2485 1365.27 0.937149C1366.91 2.10283 1368.27 2.80223 1369.32 3.85134C1382.58 16.9847 1409 17.1012 1425.38 -0.500501C1432.62 -8.27169 1434.33 -14.3721 1433.36 -27.1945H1433.24ZM1310.73 -28.0105C1305.51 -21.1719 1298.74 -17.5971 1295.55 -20.045C1292.36 -22.493 1294 -29.9533 1299.21 -36.7919C1304.42 -43.6306 1311.19 -47.2053 1314.38 -44.7574C1317.57 -42.3483 1315.94 -34.8492 1310.73 -28.0105Z" fill="white"/>
<path d="M1394.76 248.438C1380.53 237.045 1366.41 225.54 1352.18 214.185C1348.45 211.225 1347.24 211.637 1345.04 215.909C1339.44 226.777 1331.27 234.797 1320.63 239.744C1304.8 247.051 1289.33 247.801 1275.14 235.471C1270.38 231.349 1270.7 229.063 1276.38 227.077C1293.59 220.968 1308 210.363 1319.88 196.122C1342.35 169.252 1351.43 138.11 1343.23 102.92C1333.51 61.2099 1295.26 31.9414 1247.25 39.5115C1219.85 43.8212 1197.42 58.3243 1180.39 81.6341C1176.56 86.9182 1172.94 92.3521 1169.04 98.0109C1162.4 84.145 1160.52 69.7918 1162.68 55.1388C1164.85 40.5233 1168.29 26.0952 1170.99 11.5547C1176.1 -15.9524 1182.2 -43.2346 1183.26 -71.4538C1184.4 -101.884 1178.51 -130.44 1165.7 -157.498C1160.27 -168.965 1153.63 -179.721 1143.45 -187.441C1117.58 -207.041 1075.46 -202.431 1052.39 -177.51C1051.12 -176.123 1049.66 -174.961 1047.85 -173.275C1042.42 -189.427 1032.24 -198.908 1017.02 -201.307C1001.51 -203.705 989.728 -195.348 979.472 -185.192C975.25 -196.697 972.162 -208.427 966.91 -218.92C950.516 -251.599 922.589 -265.353 888.275 -258.12C866.238 -253.473 848.389 -240.581 832.492 -224.392C807.9 -199.395 793.458 -168.253 783.664 -134.3C781.854 -128.004 783.664 -125.156 790.087 -123.77C807.368 -120.06 824.685 -116.387 841.966 -112.677C847.644 -111.478 847.928 -111.815 850.341 -117.549C851.973 -121.409 853.783 -125.344 856.232 -128.604C863.932 -138.947 876.458 -139.997 886.217 -131.977C891.61 -127.555 893.74 -121.596 894.84 -114.963C897.217 -100.497 894.84 -86.1817 892.569 -72.0159C889.375 -52.1913 885.862 -32.4042 878.765 -13.5914C877.345 -9.76891 878.445 -8.08251 882.384 -7.70775C887.494 -7.22057 892.675 -7.07067 897.82 -6.92077C915.244 -6.32116 932.632 -5.79648 950.055 -5.23435C956.194 -5.04697 957.862 -6.43358 958.536 -11.98C959.92 -23.41 961.375 -34.8401 963.61 -46.1203C965.917 -57.8876 967.301 -70.4045 971.098 -81.9469C974.008 -90.7912 980.43 -97.3119 987.953 -102.109C999.664 -109.566 1015.67 -103.308 1021.06 -88.8799C1023.15 -83.2961 1023.44 -76.9252 1024.68 -70.9666C1024.68 -70.9291 1024.68 -70.8542 1024.72 -70.8167C1025.28 -68.3433 1028.55 -67.6687 1029.9 -69.7674C1031.49 -72.3907 1032.74 -75.2013 1034.19 -77.8996C1039.37 -87.5683 1047 -94.0141 1056.97 -97.4244C1068.51 -101.397 1082.34 -96.9372 1089.51 -86.6314C1096.43 -76.6629 1097.18 -65.3827 1095.12 -53.7653C1088.84 -18.4258 1082.06 16.8388 1076.13 52.2157C1073.3 69.1172 1074.47 86.3186 1077.09 103.183C1080.82 127.129 1091.85 147.516 1105.13 166.929C1117.72 185.367 1134.08 198.67 1153.24 208.189C1158.14 210.625 1159.7 213.136 1159.6 218.607C1159.24 238.395 1164.35 256.795 1174.43 273.359C1194.83 306.863 1224.61 324.926 1261.72 329.086C1303.67 333.77 1340.36 320.391 1371.51 290.486C1381.45 280.929 1389.65 269.724 1395.79 256.982C1397.31 253.797 1397.85 250.986 1394.69 248.438H1394.76ZM1268.5 127.017L1263.43 144.855C1262.68 147.479 1259.77 148.566 1257.64 147.067L1247.81 140.134C1245.4 138.41 1245.33 134.7 1247.67 132.863L1261.83 121.995C1265.17 119.41 1269.71 122.82 1268.5 126.98V127.017Z" fill="white"/>
</g>
</g>
<defs>
<clipPath id="clip0_386_5936">
<rect width="1440" height="329.877" fill="white"/>
</clipPath>
<clipPath id="clip1_386_5936">
<rect width="926.42" height="826.667" fill="white" transform="translate(-70.123 -73.0867)"/>
</clipPath>
</defs>
</svg>
