<svg width="101" height="88" viewBox="0 0 101 88" fill="none" xmlns="http://www.w3.org/2000/svg">
<g clip-path="url(#clip0_117_162)">
<path d="M47.1161 43.8606C42.8337 37.1792 34.8677 33.2679 26.6604 34.8446C23.272 35.4979 20.2859 36.9266 17.7468 39.2263C17.273 39.6532 17.0584 40.141 17.2014 40.7769C18.1134 44.8363 19.0164 48.9044 19.9283 52.9725C20.8313 57.0232 21.7432 61.0652 22.6372 65.1158C23.2988 68.1212 23.9515 71.1352 24.6041 74.1493C24.7829 74.9769 25.2121 75.5344 26.0972 75.726C27.7065 76.0745 29.3157 76.4578 30.9876 76.3881C31.8906 76.3271 32.7936 76.3358 33.6876 76.2051C37.0224 75.6912 40.1158 74.5413 42.7353 72.4419C48.2426 68.0428 50.8264 62.2934 50.7459 55.3942C50.6923 51.2216 49.378 47.3799 47.1251 43.8606H47.1161ZM40.1873 54.3576L34.0005 61.2568C33.2853 62.0582 31.9353 61.7098 31.7118 60.6732L29.4409 50.1327C29.2174 49.1047 30.2813 48.2685 31.2647 48.6866L39.7224 52.3279C40.536 52.6763 40.7684 53.6955 40.1873 54.3489V54.3576Z" fill="#231F20"/>
<path d="M91.5588 28.5033C91.4336 27.2751 91.228 26.2123 91.0403 25.0711C91.0045 24.8795 90.7899 24.6356 90.6022 24.5659C90.4502 24.5049 90.1283 24.6182 90.0211 24.7575C89.5651 25.3586 89.0018 25.7158 88.2419 25.4719C87.4015 25.2105 86.9366 24.5659 86.7936 23.7296C86.4359 21.6738 86.722 19.6789 87.4015 17.7189C88.2866 15.1927 88.2777 12.6839 87.1154 10.2448C85.4078 6.64707 81.8137 4.67835 77.7458 5.08778C73.213 5.54076 69.1273 8.98166 68.0365 13.2675C67.7951 14.2083 67.8041 14.2345 68.7428 14.5394C70.4683 15.1056 72.1938 15.6544 73.9193 16.238C74.3932 16.4036 74.6346 16.2816 74.8938 15.8722C75.3051 15.2276 75.7074 14.5307 76.2796 14.0515C77.415 13.1107 78.6935 13.4418 79.373 14.731C79.9273 15.7764 79.9273 16.8827 79.7485 18.0151C79.6949 18.381 79.4892 18.5029 79.1405 18.3897C74.6435 16.8914 70.2091 19.5309 68.1528 22.8324C66.32 25.7855 65.7836 28.9041 67.2945 32.1359C68.5372 34.8015 70.6829 36.3695 73.7227 36.6657C73.8568 36.6831 73.9909 36.7005 74.125 36.718C74.125 36.718 75.2783 36.7702 76.2975 36.6221C79.1674 35.9165 81.3399 34.305 82.9939 31.9355C83.1995 32.0749 83.3694 32.1707 83.5035 32.2927C85.1753 33.9042 88.4922 33.913 90.5485 31.7613C91.4605 30.8031 91.675 30.0626 91.5499 28.4946L91.5588 28.5033ZM76.1634 28.3988C75.5107 29.2351 74.6525 29.6706 74.2591 29.3745C73.8568 29.0783 74.0624 28.1636 74.715 27.3186C75.3677 26.4824 76.226 26.0468 76.6193 26.343C77.0217 26.6392 76.816 27.5538 76.1634 28.3988Z" fill="#231F20"/>
<path d="M94.1605 64.628C92.2025 63.1819 90.2535 61.7185 88.2956 60.2724C87.786 59.8978 87.6161 59.9501 87.3121 60.4902C86.5433 61.8666 85.4168 62.8945 83.9505 63.5217C81.7691 64.4538 79.6412 64.5409 77.6833 62.9729C77.0306 62.4502 77.0753 62.1627 77.8532 61.9014C80.2224 61.1261 82.2071 59.7759 83.8432 57.964C86.9366 54.5492 88.1883 50.5856 87.0618 46.1168C85.7207 40.8117 80.4459 37.1008 73.8389 38.059C70.066 38.6078 66.9727 40.4458 64.6303 43.4163C64.1028 44.0871 63.6021 44.784 63.0657 45.4983C62.1538 43.7387 61.8945 41.9093 62.1895 40.0538C62.4846 38.1984 62.9584 36.3603 63.3339 34.5135C64.0402 31.0204 64.8806 27.5533 65.0236 23.9643C65.1846 20.0966 64.371 16.464 62.6097 13.0319C61.8587 11.5771 60.9468 10.2094 59.5432 9.22509C55.9759 6.7337 50.1736 7.31734 46.9997 10.4882C46.8209 10.6624 46.6242 10.8105 46.3739 11.0283C45.6319 8.97246 44.2282 7.77032 42.1272 7.46543C39.9904 7.16054 38.3633 8.2233 36.9596 9.51255C36.3785 8.04908 35.9583 6.55947 35.2252 5.22667C32.9633 1.06274 29.1099 -0.679489 24.3805 0.235181C21.3497 0.827539 18.891 2.46523 16.6917 4.52107C13.3033 7.70063 11.3185 11.6555 9.95955 15.9675C9.70922 16.7689 9.95955 17.1348 10.8447 17.309C13.2228 17.7794 15.6099 18.2498 17.997 18.7202C18.7838 18.877 18.8195 18.8248 19.1503 18.1017C19.3738 17.6139 19.6242 17.1087 19.9639 16.6905C21.0278 15.3752 22.7444 15.2445 24.0944 16.2637C24.8364 16.8299 25.1315 17.5878 25.2834 18.4241C25.6053 20.2621 25.2834 22.0827 24.9705 23.8859C24.5324 26.4035 24.0497 28.921 23.0662 31.3166C22.8695 31.8044 23.0215 32.0222 23.5669 32.0657C24.2732 32.1267 24.9884 32.1441 25.6947 32.1702C28.0907 32.2486 30.4957 32.3096 32.8917 32.3793C33.7321 32.4054 33.9646 32.2225 34.0629 31.5169C34.2596 30.0621 34.4563 28.6161 34.7603 27.1788C35.0732 25.6804 35.2699 24.0863 35.7884 22.6228C36.1908 21.4991 37.0759 20.6715 38.113 20.0618C39.7312 19.1122 41.9305 19.905 42.6726 21.743C42.9587 22.4573 43.0034 23.2587 43.1732 24.0166V24.034C43.2537 24.3476 43.7007 24.4347 43.8885 24.1647C44.112 23.8337 44.2818 23.4765 44.4785 23.1368C45.1938 21.9085 46.2398 21.0897 47.6166 20.6541C49.208 20.1489 51.1123 20.7151 52.0958 22.0305C53.0435 23.2936 53.1508 24.7309 52.8647 26.2031C51.9974 30.6981 51.0676 35.1756 50.2451 39.6793C49.8517 41.8309 50.0127 44.0087 50.3792 46.1604C50.8888 49.2005 52.4176 51.7965 54.2415 54.2617C55.9759 56.605 58.2289 58.295 60.8663 59.5058C61.5369 59.8107 61.7514 60.133 61.7425 60.8299C61.6978 63.3474 62.3952 65.682 63.7899 67.7901C66.6061 72.0499 70.7008 74.3496 75.8147 74.8723C81.5903 75.4646 86.6505 73.766 90.9419 69.9679C92.3098 68.7571 93.4363 67.3284 94.2857 65.7082C94.5002 65.2987 94.5718 64.9416 94.1337 64.6193L94.1605 64.628ZM76.7624 49.1918L76.0651 51.4654C75.9667 51.7965 75.5644 51.9358 75.2694 51.7442L73.9194 50.8644C73.5886 50.6466 73.5796 50.1762 73.9015 49.941L75.8505 48.5559C76.3065 48.2336 76.9323 48.6604 76.7714 49.1918H76.7624Z" fill="#231F20"/>
<path d="M95.1798 57.2494C95.153 56.9184 95.2871 56.5874 95.5375 56.3609C95.6895 56.2128 99.0868 52.9635 98.6756 47.3013C98.2643 41.6303 94.4199 38.8776 94.259 38.7644C93.7404 38.4072 93.6242 37.7103 93.9818 37.2051C94.3484 36.6998 95.0636 36.5866 95.5822 36.935C95.7789 37.0744 100.473 40.3759 100.964 47.1358C101.456 53.9044 97.2987 57.8157 97.1199 57.9812C96.664 58.408 95.9308 58.3819 95.5017 57.9376C95.3229 57.746 95.2067 57.5108 95.1888 57.2494H95.1798Z" fill="#231F20"/>
<path d="M91.9434 54.863C91.9166 54.532 92.0507 54.2097 92.2921 53.9745C93.9014 52.241 94.6971 49.9238 94.4736 47.5892C94.3573 45.2459 93.2308 43.0681 91.3802 41.5698C90.8795 41.1952 90.7812 40.4896 91.1656 40.0018C91.5322 39.5314 92.2027 39.4269 92.7123 39.7492C95.1173 41.6308 96.5925 44.4271 96.7623 47.4324C97.0305 50.4291 95.9756 53.3996 93.8746 55.5948C93.4186 56.0216 92.6855 55.9955 92.2563 55.5512C92.0775 55.3683 91.9613 55.1244 91.9434 54.863Z" fill="#231F20"/>
<path d="M88.68 52.1009C88.6532 51.7525 88.7963 51.4215 89.0555 51.1863C90.7542 49.4615 90.7006 46.7262 88.9304 45.0623C88.8231 44.9578 88.7069 44.862 88.5817 44.7661C88.0542 44.4177 87.9201 43.7208 88.2777 43.2156C88.6264 42.7103 89.3237 42.5709 89.8512 42.902C92.8373 45.0449 93.481 49.1479 91.2817 52.0574C91.0671 52.3361 90.8347 52.6062 90.5754 52.8501C90.1016 53.2595 89.3774 53.216 88.9572 52.7543C88.7873 52.5713 88.689 52.3361 88.6711 52.0922L88.68 52.1009Z" fill="#231F20"/>
<path d="M8.51143 29.9402C8.45779 30.2886 8.25216 30.6022 7.93924 30.7852C7.74255 30.8984 3.47797 33.5205 2.58393 39.4789C1.68988 45.446 5.0336 49.1483 5.17665 49.2964C5.63261 49.7842 5.59685 50.5334 5.09618 50.9689C4.59552 51.4132 3.82664 51.3783 3.37962 50.8905C3.20081 50.7076 -0.88496 46.2475 0.178951 39.1305C1.24286 32.0135 6.46407 28.8774 6.68758 28.7468C7.25977 28.407 8.01076 28.59 8.35944 29.1475C8.50249 29.3827 8.56507 29.6614 8.52037 29.9315L8.51143 29.9402Z" fill="#231F20"/>
<path d="M11.3098 33.1286C11.2561 33.477 11.0505 33.7906 10.7376 33.9736C8.66339 35.4196 7.30445 37.641 6.99153 40.1062C6.57133 42.5541 7.22398 45.0629 8.7975 47.0229C9.23558 47.5194 9.16406 48.2686 8.65445 48.6954C8.16273 49.0961 7.43856 49.0613 7.00047 48.617C4.94418 46.1343 4.06801 42.9199 4.5955 39.7665C5.0157 36.6043 6.79484 33.7645 9.48591 31.9526C10.0581 31.6129 10.8091 31.7958 11.1578 32.3533C11.3008 32.5885 11.3634 32.8585 11.3187 33.1286H11.3098Z" fill="#231F20"/>
<path d="M14.0542 36.7176C14.0006 37.0834 13.7771 37.397 13.4463 37.58C11.2827 38.9912 10.7015 41.8397 12.1499 43.9478C12.2393 44.0785 12.3376 44.2091 12.436 44.3311C12.9009 44.8015 12.883 45.5594 12.3913 46.0036C11.9085 46.4479 11.1575 46.4392 10.6926 45.9775C8.09094 43.0941 8.38598 38.7124 11.3453 36.1775C11.6314 35.9335 11.9353 35.7071 12.2572 35.5154C12.8473 35.2018 13.5804 35.4022 13.9112 35.9771C14.0363 36.2036 14.09 36.4649 14.0542 36.7263V36.7176Z" fill="#231F20"/>
<path d="M84.201 87.067L84.4424 87.7813L83.754 88.0078L82.1179 83.1992L82.8332 82.9727L84.0133 86.4398C84.6302 86.9189 85.2828 87.0495 85.9891 86.8231C86.4361 86.675 86.7401 86.4659 86.901 86.1958C87.062 85.9258 87.0709 85.5861 86.9458 85.2028L85.864 82.0058L86.5792 81.7793L87.6699 85.0111C87.8487 85.5338 87.8219 86.0042 87.5984 86.4223C87.3749 86.8405 86.9547 87.1454 86.3557 87.3457C85.6047 87.5896 84.8984 87.5025 84.2279 87.0931L84.201 87.067Z" fill="#231F20"/>
<path d="M90.245 81.7884C90.0215 81.3964 89.7711 81.1525 89.5029 81.0654C89.2347 80.9695 88.9039 81.0305 88.5016 81.2483C88.0993 81.4661 87.7864 81.7448 87.5629 82.0671L87.2678 81.5532C87.3662 81.4138 87.5092 81.2657 87.697 81.1002C87.8847 80.9434 88.0814 80.804 88.296 80.6821C88.8592 80.3772 89.3509 80.2901 89.789 80.4382C90.2271 80.5775 90.6026 80.926 90.9245 81.4661L92.5695 84.3146L91.9168 84.6718L90.245 81.7884Z" fill="#231F20"/>
<path d="M94.2234 82.8774C93.9999 82.8426 93.7942 82.7032 93.6154 82.4767L91.0227 79.2013L91.6128 78.7571L94.1072 81.9105C94.2234 82.0586 94.3307 82.1283 94.4379 82.137C94.5452 82.137 94.6615 82.0934 94.8045 81.9889L95.0906 81.7798L95.475 82.2677L94.9118 82.6858C94.6793 82.86 94.4558 82.9297 94.2234 82.8862V82.8774Z" fill="#231F20"/>
<path d="M97.6204 80.1416C97.2271 80.2897 96.8158 80.3158 96.3777 80.22C95.9396 80.1242 95.5105 79.8977 95.0724 79.5405C94.3929 78.983 94.0174 78.3558 93.9459 77.6851C93.8833 77.0056 94.1247 76.3436 94.688 75.6989C95.2602 75.0369 95.8323 74.6884 96.4135 74.6536C96.9857 74.6188 97.5221 74.8017 98.0049 75.2024L100.401 77.1798L99.9181 77.7373L97.5132 75.7599C96.6996 75.0892 95.9128 75.2024 95.1439 76.0822C94.7327 76.5526 94.5628 77.0404 94.6165 77.5457C94.679 78.0509 94.983 78.5301 95.5463 78.9917C96.0559 79.4099 96.5476 79.6102 97.0214 79.5928C97.4953 79.5754 97.9155 79.3576 98.2731 78.9395C98.4251 78.7653 98.5502 78.5736 98.6486 78.3733L99.1045 78.7478C99.0151 78.9482 98.8721 79.166 98.6665 79.4012C98.3536 79.767 97.9959 80.0197 97.6026 80.1678L97.6204 80.1416Z" fill="#231F20"/>
<path d="M94.0084 74.8369C93.9369 74.7934 93.8743 74.7759 93.8386 74.7847C93.7939 74.7847 93.7492 74.8282 93.7134 74.9066L93.4988 75.2638L93.0339 74.9937L93.3558 74.4623C93.4541 74.2968 93.5704 74.201 93.6955 74.1749C93.8207 74.1487 93.9459 74.1749 94.071 74.2446L94.3839 74.4275L95.4032 72.7637L95.8412 73.0163L94.5449 75.1418L94.0263 74.8456L94.0084 74.8369Z" fill="#231F20"/>
</g>
<defs>
<clipPath id="clip0_117_162">
<rect width="101" height="88" fill="white"/>
</clipPath>
</defs>
</svg>
