<svg width="41" height="40" viewBox="0 0 41 40" fill="none" xmlns="http://www.w3.org/2000/svg">
<path d="M33.3643 4.68482C32.0652 3.60368 30.6096 2.67531 29.0458 1.94671C26.4474 0.724557 23.5243 0.0429688 20.4447 0.0429688C17.3652 0.0429688 14.4541 0.724557 11.8437 1.94671C10.5085 2.56954 9.25741 3.34514 8.10258 4.23826C3.47126 7.79897 0.5 13.3339 0.5 19.527C0.5 25.72 3.47126 31.2667 8.10258 34.8274C10.1957 36.4492 12.6377 37.6713 15.2962 38.3647C16.9322 38.7995 18.6644 39.0227 20.4447 39.0227C22.2251 39.0227 23.9573 38.7995 25.6054 38.3647C28.5044 37.6126 31.1389 36.2259 33.3643 34.3809C37.6709 30.8084 40.4015 25.4732 40.4015 19.527C40.4015 13.5807 37.6709 8.24553 33.3643 4.67307V4.68482ZM28.2999 9.89074H25.9662C23.6686 9.89074 22.9469 11.2892 22.9469 12.7111V16.1073H28.0834L27.2654 21.3485H22.9469V34.0048H17.1487V21.3485H12.4452V16.1073H17.1487V12.1235C17.1487 7.58744 19.9275 5.08437 24.1498 5.08437C26.1828 5.08437 28.2999 5.43691 28.2999 5.43691V9.89074Z" fill="#231F20"/>
<path d="M22.947 12.7107V16.1069H28.0835L27.2655 21.3481H22.947V34.0045H17.1488V21.3481H12.4453V16.1069H17.1488V12.1231C17.1488 7.58706 19.9276 5.08398 24.1499 5.08398C26.1829 5.08398 28.3001 5.43653 28.3001 5.43653V9.89035H25.9664C23.6687 9.89035 22.947 11.2888 22.947 12.7107Z" fill="white"/>
</svg>
