<svg width="40" height="40" viewBox="0 0 40 40" fill="none" xmlns="http://www.w3.org/2000/svg">
<path d="M23.9324 19.5258C23.9324 21.5823 22.2122 23.251 20.1191 23.251C18.0259 23.251 16.2937 21.5823 16.2937 19.5258C16.2937 17.4693 18.0139 15.8005 20.1191 15.8005C22.2242 15.8005 23.9324 17.4693 23.9324 19.5258Z" fill="white"/>
<path d="M23.9324 19.5258C23.9324 21.5823 22.2122 23.251 20.1191 23.251C18.0259 23.251 16.2937 21.5823 16.2937 19.5258C16.2937 17.4693 18.0139 15.8005 20.1191 15.8005C22.2242 15.8005 23.9324 17.4693 23.9324 19.5258Z" fill="black"/>
<path d="M24.8468 9.94775H15.1871C12.4324 9.94775 10.1949 12.1335 10.1949 14.8246V24.2493C10.1949 26.9404 12.4324 29.1262 15.1871 29.1262H24.8468C27.5895 29.1262 29.839 26.9404 29.839 24.2493V14.8246C29.839 12.1335 27.5895 9.94775 24.8468 9.94775ZM20.1192 25.354C16.8231 25.354 14.1526 22.7452 14.1526 19.537C14.1526 16.3288 16.8231 13.72 20.1192 13.72C23.4153 13.72 26.0738 16.3288 26.0738 19.537C26.0738 22.7452 23.4032 25.354 20.1192 25.354ZM26.4226 14.7071C25.6407 14.7071 25.0031 14.096 25.0031 13.3322C25.0031 12.5683 25.6407 11.9455 26.4226 11.9455C27.2045 11.9455 27.8421 12.5566 27.8421 13.3322C27.8421 14.1078 27.2045 14.7071 26.4226 14.7071Z" fill="black"/>
<path d="M36.7557 8.9254C33.195 3.57846 27.0239 0.0412598 20.0107 0.0412598C11.951 0.0412598 5.01007 4.70661 1.87039 11.4285C0.703541 13.8963 0.0539551 16.6461 0.0539551 19.537C0.0539551 22.4279 0.703541 25.1777 1.87039 27.6456C5.01007 34.3674 11.951 39.0328 20.0107 39.0328C27.0239 39.0328 33.195 35.4956 36.7557 30.1486C38.7886 27.0932 39.9675 23.4503 39.9675 19.537C39.9675 15.6238 38.7886 11.9808 36.7557 8.9254ZM32.1123 24.2494C32.1123 28.1744 28.8523 31.3473 24.8465 31.3473H15.1869C11.1811 31.3473 7.92118 28.1744 7.92118 24.2494V14.8247C7.92118 10.9114 11.1811 7.72675 15.1869 7.72675H24.8465C28.8523 7.72675 32.1123 10.9114 32.1123 14.8247V24.2494Z" fill="#231F20"/>
<path d="M24.8465 7.71582H15.1869C11.1811 7.71582 7.92114 10.9005 7.92114 14.8137V24.2384C7.92114 28.1635 11.1811 31.3364 15.1869 31.3364H24.8465C28.8523 31.3364 32.1123 28.1635 32.1123 24.2384V14.8137C32.1123 10.9005 28.8523 7.71582 24.8465 7.71582ZM29.8387 24.2384C29.8387 26.9295 27.5892 29.1153 24.8465 29.1153H15.1869C12.4322 29.1153 10.1947 26.9295 10.1947 24.2384V14.8137C10.1947 12.1226 12.4322 9.93686 15.1869 9.93686H24.8465C27.5892 9.93686 29.8387 12.1226 29.8387 14.8137V24.2384Z" fill="white"/>
<path d="M27.8424 13.3332C27.8424 14.0971 27.2048 14.7081 26.4229 14.7081C25.641 14.7081 25.0034 14.0971 25.0034 13.3332C25.0034 12.5694 25.641 11.9465 26.4229 11.9465C27.2048 11.9465 27.8424 12.5576 27.8424 13.3332Z" fill="white"/>
<path d="M20.1191 13.7209C16.823 13.7209 14.1525 16.3298 14.1525 19.5379C14.1525 22.7461 16.823 25.3549 20.1191 25.3549C23.4151 25.3549 26.0736 22.7461 26.0736 19.5379C26.0736 16.3298 23.4031 13.7209 20.1191 13.7209ZM20.1191 23.2632C18.0139 23.2632 16.2937 21.5945 16.2937 19.5379C16.2937 17.4814 18.0139 15.8127 20.1191 15.8127C22.2242 15.8127 23.9324 17.4814 23.9324 19.5379C23.9324 21.5945 22.2122 23.2632 20.1191 23.2632Z" fill="white"/>
</svg>
