<svg width="43" height="41" viewBox="0 0 43 41" fill="none" xmlns="http://www.w3.org/2000/svg">
<path d="M22.6474 19.9979L29.9372 30.1747H26.9539L20.9993 21.8781L20.1332 20.656L13.1923 10.9492H16.1755L21.7813 18.7757L22.6474 19.9979Z" fill="white"/>
<path d="M29.9372 30.1747H26.9539L20.9993 21.8781L20.1332 20.656L13.1923 10.9492H16.1755L21.7813 18.7757L22.6474 19.9979L29.9372 30.1747Z" fill="black"/>
<path d="M37.202 6.91754C33.3767 2.69875 27.795 0.0664062 21.5638 0.0664062C13.2395 0.0664062 6.04587 4.81402 2.65358 11.7004C1.3544 14.368 0.620605 17.3529 0.620605 20.5258C0.620605 23.6987 1.3544 26.6836 2.65358 29.3629C6.03384 36.2376 13.2274 40.9969 21.5638 40.9969C27.795 40.9969 33.3767 38.3411 37.202 34.1458C40.5101 30.5263 42.519 25.7552 42.519 20.5258C42.519 15.2964 40.5221 10.5253 37.202 6.91754ZM26.0267 31.5487L20.012 22.9936L12.4816 31.5487H10.5449L19.1579 21.7597L10.5449 9.51462H17.1129L22.8028 17.6114L29.9363 9.51462H31.873L23.6689 18.8336L32.5948 31.537H26.0267V31.5487Z" fill="#231F20"/>
<path d="M23.6691 18.8343L31.8732 9.51538H29.9364L22.803 17.6122L17.1131 9.51538H10.545L19.1581 21.7605L10.545 31.5495H12.4818L20.0122 22.9944L26.0269 31.5495H32.5949L23.6691 18.8461V18.8343ZM20.9986 21.878L20.1325 20.6558L13.1915 10.9491H16.1868L21.7805 18.7756L22.6466 19.9977L29.9364 30.1745H26.9411L20.9986 21.878Z" fill="white"/>
</svg>
