<svg width="41" height="41" viewBox="0 0 41 41" fill="none" xmlns="http://www.w3.org/2000/svg">
<path d="M25.5061 21.0314L18.7937 24.2865C18.5291 24.4276 17.6389 24.2395 17.6389 23.9457V17.2826C17.6389 16.9889 18.5411 16.8008 18.7937 16.9418L25.2295 20.3615C25.4941 20.5143 25.7828 20.8904 25.5061 21.0314Z" fill="white"/>
<path d="M25.5061 21.0314L18.7937 24.2865C18.5291 24.4276 17.6389 24.2395 17.6389 23.9457V17.2826C17.6389 16.9889 18.5411 16.8008 18.7937 16.9418L25.2295 20.3615C25.4941 20.5143 25.7828 20.8904 25.5061 21.0314Z" fill="#231F20"/>
<path d="M37.0062 8.69176C33.3011 3.77963 27.3225 0.594971 20.586 0.594971C12.4301 0.594971 5.39289 5.27207 2.1209 12.0174C0.869837 14.6028 0.172119 17.4819 0.172119 20.5373C0.172119 23.5927 0.869837 26.4718 2.1209 29.0571C5.39289 35.8025 12.4301 40.4796 20.586 40.4796C27.3225 40.4796 33.3011 37.2949 37.0062 32.3828C39.5203 29.0689 40.9999 24.9794 40.9999 20.5373C40.9999 16.0952 39.5203 12.0057 37.0062 8.69176ZM34.3236 23.9452C34.3236 27.1064 31.6892 29.6682 28.4653 29.6682H13.4766C10.2407 29.6682 7.61832 27.1064 7.61832 23.9452V17.1293C7.61832 13.9682 10.2407 11.4064 13.4766 11.4064H28.4653C31.6892 11.4064 34.3236 13.9682 34.3236 17.1293V23.9452Z" fill="#231F20"/>
<path d="M28.4646 11.405H13.476C10.2401 11.405 7.61768 13.9669 7.61768 17.128V23.9439C7.61768 27.1051 10.2401 29.6669 13.476 29.6669H28.4646C31.6885 29.6669 34.3229 27.1051 34.3229 23.9439V17.128C34.3229 13.9669 31.6885 11.405 28.4646 11.405ZM25.5054 21.0413L18.793 24.2964C18.5283 24.4375 17.6382 24.2494 17.6382 23.9556V17.2925C17.6382 16.9987 18.5404 16.8107 18.793 16.9517L25.2287 20.3714C25.4934 20.5242 25.7821 20.9003 25.5054 21.0413Z" fill="white"/>
</svg>
