<svg width="24" height="25" viewBox="0 0 24 25" fill="none" xmlns="http://www.w3.org/2000/svg">
<g clip-path="url(#clip0_127_661)">
<path d="M12 24.3726C18.6274 24.3726 24 19 24 12.3726C24 5.74514 18.6274 0.372559 12 0.372559C5.37258 0.372559 0 5.74514 0 12.3726C0 19 5.37258 24.3726 12 24.3726Z" fill="#1A1A1A"/>
<path d="M16.0505 5.54175H7.94584C6.40984 5.54175 5.16553 6.78606 5.16553 8.32206V16.4267C5.16553 17.9627 6.40984 19.207 7.94584 19.207H16.0505C17.5865 19.207 18.8308 17.9627 18.8308 16.4267V8.32206C18.8308 6.78606 17.5865 5.54175 16.0505 5.54175Z" fill="#00CB5E"/>
<path d="M16.5194 15.5737L16.8185 17.1947L15.2012 16.8919H15.2049C14.3003 17.5307 13.1926 17.911 12 17.911C8.94278 17.911 6.46155 15.4297 6.46155 12.3688C6.46155 9.30789 8.93909 6.82666 12 6.82666C15.0609 6.82666 17.5385 9.30789 17.5385 12.3688C17.5385 13.5651 17.1582 14.6728 16.5157 15.5774L16.5231 15.57L16.5194 15.5737Z" fill="#1A1A1A"/>
<path d="M12 9.49243C10.4086 9.49243 9.12 10.781 9.12 12.3724C9.12 13.9638 10.4086 15.2524 12 15.2524C13.5914 15.2524 14.88 13.9638 14.88 12.3724C14.88 10.781 13.5914 9.49243 12 9.49243ZM12 13.1737C11.5606 13.1737 11.2025 12.8155 11.2025 12.3761C11.2025 11.9367 11.5606 11.5786 12 11.5786C12.4394 11.5786 12.7975 11.9367 12.7975 12.3761C12.7975 12.8155 12.4394 13.1737 12 13.1737Z" fill="white"/>
</g>
<defs>
<clipPath id="clip0_127_661">
<rect width="24" height="24" fill="white" transform="translate(0 0.372559)"/>
</clipPath>
</defs>
</svg>
