<svg width="24" height="25" viewBox="0 0 24 25" fill="none" xmlns="http://www.w3.org/2000/svg">
<g clip-path="url(#clip0_127_656)">
<path d="M12 0.372559C5.3717 0.372559 0 5.74425 0 12.3726C0 19.0009 5.3717 24.3726 12 24.3726C18.6283 24.3726 24 19.0009 24 12.3726C24 5.74425 18.6243 0.372559 12 0.372559ZM17.5042 17.68C17.2874 18.0333 16.8297 18.1457 16.4764 17.9289C13.6581 16.2066 10.1131 15.8172 5.93376 16.7727C5.53228 16.865 5.13081 16.6121 5.03847 16.2106C4.94614 15.8092 5.19906 15.4077 5.60054 15.3153C10.1693 14.2715 14.0917 14.7212 17.2553 16.6523C17.6086 16.869 17.717 17.3267 17.5042 17.68ZM18.9736 14.412C18.7006 14.8537 18.1265 14.9902 17.6848 14.7212C14.461 12.7379 9.54299 12.1638 5.72901 13.324C5.2352 13.4726 4.71328 13.1956 4.56072 12.7018C4.41218 12.208 4.68919 11.686 5.183 11.5335C9.54299 10.2126 14.9588 10.851 18.6604 13.1273C19.102 13.3963 19.2385 13.9744 18.9696 14.412H18.9736ZM19.102 11.0116C15.2359 8.71515 8.85246 8.50237 5.16293 9.62248C4.56875 9.80314 3.94246 9.4659 3.76179 8.87574C3.58113 8.28156 3.91837 7.65526 4.50853 7.4746C8.74808 6.18989 15.7939 6.43479 20.2462 9.08049C20.7802 9.39765 20.9528 10.0842 20.6397 10.6181C20.3225 11.1521 19.632 11.3287 19.102 11.0116Z" fill="#1ED560"/>
<path d="M17.5001 17.6799C17.2833 18.0332 16.8256 18.1456 16.4723 17.9288C13.654 16.2065 10.109 15.8171 5.92968 16.7726C5.52821 16.8649 5.12674 16.612 5.0344 16.2105C4.94206 15.8091 5.19499 15.4076 5.59646 15.3153C10.1652 14.2714 14.0876 14.7211 17.2512 16.6522C17.6045 16.869 17.7129 17.3266 17.5001 17.6799Z" fill="black"/>
<path d="M18.9695 14.412C18.6965 14.8537 18.1224 14.9902 17.6808 14.7212C14.457 12.7379 9.53895 12.1638 5.72496 13.3241C5.23115 13.4726 4.70924 13.1956 4.55668 12.7018C4.40813 12.208 4.68515 11.686 5.17896 11.5335C9.53895 10.2126 14.9548 10.851 18.6564 13.1273C19.098 13.3963 19.2345 13.9744 18.9655 14.412H18.9695Z" fill="black"/>
<path d="M19.098 11.0116C15.2318 8.71515 8.84843 8.50237 5.1589 9.62248C4.56472 9.80314 3.93842 9.46591 3.75776 8.87574C3.5771 8.28156 3.91433 7.65527 4.5045 7.4746C8.74404 6.18989 15.7899 6.43479 20.2422 9.08049C20.7762 9.39766 20.9488 10.0842 20.6356 10.6181C20.3185 11.1521 19.628 11.3287 19.098 11.0116Z" fill="black"/>
</g>
<defs>
<clipPath id="clip0_127_656">
<rect width="24" height="24" fill="white" transform="translate(0 0.372559)"/>
</clipPath>
</defs>
</svg>
