<svg width="24" height="25" viewBox="0 0 24 25" fill="none" xmlns="http://www.w3.org/2000/svg">
<g clip-path="url(#clip0_127_649)">
<path d="M14.8922 12.6766L10.9464 14.6353C10.7909 14.7202 10.2676 14.6071 10.2676 14.4303V10.4208C10.2676 10.2441 10.7979 10.1309 10.9464 10.2158L14.7296 12.2735C14.8851 12.3655 15.0548 12.5917 14.8922 12.6766Z" fill="white"/>
<path d="M14.8922 12.6766L10.9464 14.6353C10.7909 14.7202 10.2676 14.6071 10.2676 14.4303V10.4208C10.2676 10.2441 10.7979 10.1309 10.9464 10.2158L14.7296 12.2735C14.8851 12.3655 15.0548 12.5917 14.8922 12.6766Z" fill="#CD201F"/>
<path d="M21.6523 5.24469C19.4744 2.28888 15.9599 0.372559 12 0.372559C7.20566 0.372559 3.06895 3.18694 1.14555 7.24586C0.410136 8.80155 0 10.534 0 12.3726C0 14.2111 0.410136 15.9436 1.14555 17.4993C3.06895 21.5582 7.20566 24.3726 12 24.3726C15.9599 24.3726 19.4744 22.4562 21.6523 19.5004C23.1302 17.5063 24 15.0455 24 12.3726C24 9.69961 23.1302 7.23879 21.6523 5.24469ZM20.0754 14.4232C20.0754 16.3254 18.5268 17.867 16.6317 17.867H7.82086C5.91868 17.867 4.37714 16.3254 4.37714 14.4232V10.3219C4.37714 8.4197 5.91868 6.87816 7.82086 6.87816H16.6317C18.5268 6.87816 20.0754 8.4197 20.0754 10.3219V14.4232Z" fill="#CD201F"/>
<path d="M16.6318 6.87817H7.82092C5.91874 6.87817 4.3772 8.41972 4.3772 10.3219V14.4233C4.3772 16.3254 5.91874 17.867 7.82092 17.867H16.6318C18.5269 17.867 20.0755 16.3254 20.0755 14.4233V10.3219C20.0755 8.41972 18.5269 6.87817 16.6318 6.87817ZM14.8922 12.6766L10.9464 14.6354C10.7909 14.7202 10.2676 14.6071 10.2676 14.4303V10.4209C10.2676 10.2441 10.7979 10.131 10.9464 10.2158L14.7296 12.2736C14.8852 12.3655 15.0549 12.5918 14.8922 12.6766Z" fill="white"/>
</g>
<defs>
<clipPath id="clip0_127_649">
<rect width="24" height="24" fill="white" transform="translate(0 0.372559)"/>
</clipPath>
</defs>
</svg>
